<?xml version="1.0" standalone="no"?>
<!DOCTYPE svg PUBLIC "-//W3C//DTD SVG 20010904//EN"
 "http://www.w3.org/TR/2001/REC-SVG-20010904/DTD/svg10.dtd">
<svg version="1.0" xmlns="http://www.w3.org/2000/svg"
 width="16.000000pt" height="16.000000pt" viewBox="0 0 16.000000 16.000000"
 preserveAspectRatio="xMidYMid meet">
<metadata>
Created by potrace 1.11, written by Peter Selinger 2001-2013
</metadata>
<g transform="translate(0.000000,16.000000) scale(0.005333,-0.005333)"
fill="#000000" stroke="none">
<path d="M580 1997 c0 -8 21 -20 47 -28 32 -9 52 -22 60 -39 17 -33 18 -677 2
-713 -13 -28 -48 -47 -84 -47 -18 0 -25 -5 -25 -20 0 -20 7 -20 380 -20 209 0
380 3 380 8 0 4 11 68 25 142 30 162 29 150 6 150 -13 0 -28 -19 -50 -64 -64
-130 -154 -186 -301 -186 -58 0 -83 4 -94 16 -14 13 -16 61 -16 370 l0 355 23
23 c13 13 42 26 65 30 27 4 42 11 42 21 0 13 -33 15 -230 15 -184 0 -230 -3
-230 -13z"/>
<path d="M1450 1995 c0 -8 16 -19 40 -25 71 -19 70 -13 70 -400 0 -389 1 -385
-71 -396 -29 -5 -39 -11 -39 -25 0 -18 12 -19 220 -19 213 0 220 1 220 20 0
15 -7 20 -29 20 -15 0 -40 9 -55 21 l-26 20 0 175 0 174 150 0 150 0 0 -173
c0 -195 -2 -202 -74 -214 -26 -4 -36 -11 -36 -24 0 -18 12 -19 220 -19 208 0
220 1 220 19 0 14 -10 20 -39 25 -72 11 -71 7 -71 396 0 387 -1 381 70 400 24
6 40 17 40 25 0 13 -34 15 -220 15 -181 0 -220 -2 -220 -14 0 -15 21 -26 51
-26 10 0 28 -9 39 -20 18 -18 20 -33 20 -175 l0 -155 -150 0 -150 0 0 153 c0
173 6 188 74 201 22 4 36 13 36 21 0 13 -34 15 -220 15 -186 0 -220 -2 -220
-15z"/>
</g>
</svg>
